<svg xmlns="http://www.w3.org/2000/svg" viewBox="0 0 228 31.96"><defs><style>.cls-1{fill:#fff;}</style></defs><title>finalcubes</title><g id="Layer_2" data-name="Layer 2"><g id="Layer_1-2" data-name="Layer 1"><polygon class="cls-1" points="228 25.36 214.8 31.96 228 31.96 228 25.36"/><polygon class="cls-1" points="0 31.96 13.2 31.96 0 25.36 0 31.96"/><polygon class="cls-1" points="228 8.2 228 0 214 0 227.2 6.6 214 13.2 200.8 6.6 214 0 164 0 177.2 6.6 164 13.2 150.8 6.6 164 0 114 0 127.2 6.6 114 13.2 100.8 6.6 114 0 64 0 77.2 6.6 64 13.2 50.8 6.6 64 0 14 0 27.2 6.6 14 13.2 0.8 6.6 14 0 0 0 0 8.2 13.2 14.8 13.2 31.96 14.8 31.96 14.8 14.8 28 8.2 28 25.36 14.8 31.96 63.2 31.96 50 25.36 50 8.2 63.2 14.8 63.2 31.96 64.8 31.96 64.8 14.8 78 8.2 78 25.36 64.8 31.96 113.2 31.96 100 25.36 100 8.2 113.2 14.8 113.2 31.96 114.8 31.96 114.8 14.8 128 8.2 128 25.36 114.8 31.96 163.2 31.96 150 25.36 150 8.2 163.2 14.8 163.2 31.96 164.8 31.96 164.8 14.8 178 8.2 178 25.36 164.8 31.96 213.2 31.96 200 25.36 200 8.2 213.2 14.8 213.2 31.96 214.8 31.96 214.8 14.8 228 8.2"/></g></g></svg>