<svg xmlns="http://www.w3.org/2000/svg" viewBox="0 0 200 33"><defs><style>.cls-1{fill:#fff;}</style></defs><title>letryagain</title><g id="Layer_2" data-name="Layer 2"><g id="Layer_1-2" data-name="Layer 1"><path class="cls-1" d="M200,8.7V0H0V33H200V25.9l-14.14,6.6V15.3ZM24.14,32.5,10,25.9V8.7l14.14,6.6ZM10.86,7.1,25,.5,39.14,7.1,25,13.7ZM40,25.9,25.86,32.5V15.3L40,8.7Zm24.14,6.6L50,25.9V8.7l14.14,6.6ZM50.86,7.1,65,.5,79.14,7.1,65,13.7ZM80,25.9,65.86,32.5V15.3L80,8.7Zm24.14,6.6L90,25.9V8.7l14.14,6.6ZM90.86,7.1,105,.5l14.14,6.6L105,13.7ZM120,25.9l-14.14,6.6V15.3L120,8.7Zm24.14,6.6L130,25.9V8.7l14.14,6.6ZM130.86,7.1,145,.5l14.14,6.6L145,13.7ZM160,25.9l-14.14,6.6V15.3L160,8.7Zm24.14,6.6L170,25.9V8.7l14.14,6.6ZM185,13.7,170.86,7.1,185,.5l14.14,6.6Z"/></g></g></svg>