<svg xmlns="http://www.w3.org/2000/svg" viewBox="0 0 228 31.96"><defs><style>.cls-1{fill:#fff;}</style></defs><title>finalcubesv2</title><g id="Layer_2" data-name="Layer 2"><g id="Layer_1-2" data-name="Layer 1"><path class="cls-1" d="M0,0V32H228V0ZM43.74,27.12l-9.2-4.6v-12l9.2,4.6ZM35.1,9.44l9.2-4.6,9.2,4.6L44.3,14Zm19,13.08-9.2,4.6v-12l9.2-4.6Zm24.53,4.6-9.2-4.6v-12l9.2,4.6ZM69.95,9.44l9.2-4.6,9.2,4.6L79.15,14Zm19,13.08-9.2,4.6v-12l9.2-4.6Zm24.53,4.6-9.2-4.6v-12l9.2,4.6ZM104.8,9.44l9.2-4.6,9.2,4.6L114,14Zm19,13.08-9.2,4.6v-12l9.2-4.6Zm24.53,4.6-9.2-4.6v-12l9.2,4.6ZM139.65,9.44l9.2-4.6,9.2,4.6-9.2,4.6Zm19,13.08-9.2,4.6v-12l9.2-4.6Zm24.53,4.6-9.2-4.6v-12l9.2,4.6ZM174.5,9.44l9.2-4.6,9.2,4.6L183.7,14Zm19,13.08-9.2,4.6v-12l9.2-4.6Z"/></g></g></svg>